# xmcd CD database file
#
# Track frame offsets:
#	150
#	12875
#	28073
#	40363
#	53660
#	67030
#	77608
#	90575
#	104610
#	119255
#	132155
#	145940
#
# Disc length: 2153 seconds
#
# Revision: 0
# Processed by: cddbd v1.5.1PL0 Copyright (c) Steve Scherf et al.
# Submitted via: CDex 1.51
#
DISCID=9f08670c
DTITLE=Various Artist - The Blues Collection - Volume 5
DYEAR=1998
DGENRE=Blues
TTITLE0=Jimmy Rogers - That's all right
TTITLE1=Muddy Waters - Honey bee
TTITLE2=Howlin' Wolf - How many more years
TTITLE3=John Lee Hooker - Ground hog blues
TTITLE4=Jimmy Nelson - Free and easy mind
TTITLE5=Percy Mayfeld - Double dealing
TTITLE6=Willie Mabon - Seventh son
TTITLE7=Lowell Fulson - Check yourself
TTITLE8=Sonny Boy Williamson - The key
TTITLE9=Memphie Minnie - Me and my chauffeur
TTITLE10=Little Walter - Cenfessin' the blues
TTITLE11=Eddie Boyd - Twenty-four hours
EXTD=YEAR: 1998
EXTT0=
EXTT1=
EXTT2=
EXTT3=
EXTT4=
EXTT5=
EXTT6=
EXTT7=
EXTT8=
EXTT9=
EXTT10=
EXTT11=
PLAYORDER=
